P3
# 16-bit ppm RGB
57 46
65535
16448 16448 16448 16448 16448 16448 16448 16448 16448 16448 16448 16448 16448 16448 16448
16448 16448 16448 16448 16448 16448 16448 16448 16448 16448 16448 16448 16448 16448 16448
16448 16448 16448 16448 16448 16448 16448 16448 16448 16448 16448 16448 16448 16448 16448
16448 16448 16448 16448 16448 16448 16448 16448 16448 16448 16448 16448 16448 16448 16448
16448 16448 16448 16448 16448 16448 16448 16448 16448 16448 16448 16448 16448 16448 16448
16448 16448 16448 16448 16448 16448 16448 16448 16448 16448 16448 16448 16448 16448 16448
16448 16448 16448 16448 16448 16448 16448 16448 16448 16448 16448 16448 16448 16448 16448
16448 16448 16448 16448 16448 16448 16448 16448 16448 16448 16448 16448 16448 16448 16448
16448 16448 16448 16448 16448 16448 16448 16448 16448 16448 16448 16448 16448 16448 16448
16448 16448 16448 16448 16448 16448 16448 16448 16448 16448 16448 16448 16448 16448 16448
16448 16448 16448 16448 16448 16448 16448 16448 16448 16448 16448 16448 16448 16448 16448
16448 16448 16448 16448 16448 16448
16448 16448 16448 16448 16448 16448 16448 16448 16448 16448 16448 16448 16448 16448 16448
16448 16448 16448 16448 16448 16448 16448 16448 16448 16448 16448 16448 16448 16448 16448
16448 16448 16448 16448 16448 16448 16448 16448 16448 16448 16448 16448 16448 16448 16448
16448 16448 16448 16448 16448 16448 16448 16448 16448 16448 16448 16448 16448 16448 16448
16448 16448 16448 16448 16448 16448 16448 16448 16448 16448 16448 16448 16448 16448 16448
16448 16448 16448 16448 16448 16448 16448 16448 16448 16448 16448 16448 16448 16448 16448
16448 16448 16448 16448 16448 16448 16448 16448 16448 16448 16448 16448 16448 16448 16448
16448 16448 16448 16448 16448 16448 16448 16448 16448 16448 16448 16448 16448 16448 16448
16448 16448 16448 16448 16448 16448 16448 16448 16448 16448 16448 16448 16448 16448 16448
16448 16448 16448 16448 16448 16448 16448 16448 16448 16448 16448 16448 16448 16448 16448
16448 16448 16448 16448 16448 16448 16448 16448 16448 16448 16448 16448 16448 16448 16448
16448 16448 16448 16448 16448 16448
16448 16448 16448 16448 16448 16448 16448 16448 16448 16448 16448 16448 16448 16448 16448
16448 16448 16448 16448 16448 16448 16448 16448 16448 16448 16448 16448 16448 16448 16448
16448 16448 16448 16448 16448 16448 16448 16448 16448 16448 16448 16448 16448 16448 16448
16448 16448 16448 16448 16448 16448 16448 16448 16448 16448 16448 16448 16448 16448 16448
16448 16448 16448 16448 16448 16448 16448 16448 16448 16448 16448 16448 16448 16448 16448
16448 16448 16448 16448 16448 16448 16448 16448 16448 16448 16448 16448 16448 16448 16448
16448 16448 16448 16448 16448 16448 16448 16448 16448 16448 16448 16448 16448 16448 16448
16448 16448 16448 16448 16448 16448 16448 16448 16448 16448 16448 16448 16448 16448 16448
16448 16448 16448 16448 16448 16448 16448 16448 16448 16448 16448 16448 16448 16448 16448
16448 16448 16448 16448 16448 16448 16448 16448 16448 16448 16448 16448 16448 16448 16448
16448 16448 16448 16448 16448 16448 16448 16448 16448 16448 16448 16448 16448 16448 16448
16448 16448 16448 16448 16448 16448
16448 16448 16448 16448 16448 16448 16448 16448 16448 16448 16448 16448 16448 16448 16448
16448 16448 16448 16448 16448 16448 16448 16448 16448 16448 16448 16448 16448 16448 16448
16448 16448 16448 16448 16448 16448 16448 16448 16448 16448 16448 16448 16448 16448 16448
16448 16448 16448 16448 16448 16448 16448 16448 16448 16448 16448 16448 16448 16448 16448
16448 16448 16448 16448 16448 16448 16448 16448 16448 16448 16448 16448 16448 16448 16448
16448 16448 16448 16448 16448 16448 16448 16448 16448 16448 16448 16448 16448 16448 16448
16448 16448 16448 16448 16448 16448 16448 16448 16448 16448 16448 16448 16448 16448 16448
16448 16448 16448 16448 16448 16448 16448 16448 16448 16448 16448 16448 16448 16448 16448
16448 16448 16448 16448 16448 16448 16448 16448 16448 16448 16448 16448 16448 16448 16448
16448 16448 16448 16448 16448 16448 16448 16448 16448 16448 16448 16448 16448 16448 16448
16448 16448 16448 16448 16448 16448 16448 16448 16448 16448 16448 16448 16448 16448 16448
16448 16448 16448 16448 16448 16448
16448 16448 16448 16448 16448 16448 16448 16448 16448 16448 16448 16448 16448 16448 16448
16448 16448 16448 16448 16448 16448 16448 16448 16448 16448 16448 16448 16448 16448 16448
16448 16448 16448 16448 16448 16448 16448 16448 16448 16448 16448 16448 16448 16448 16448
16448 16448 16448 16448 16448 16448 16448 16448 16448 16448 16448 16448 16448 16448 16448
16448 16448 16448 16448 16448 16448 16448 16448 16448 16448 16448 16448 16448 16448 16448
16448 16448 16448 16448 16448 16448 16448 16448 16448 16448 16448 16448 16448 16448 16448
16448 16448 16448 16448 16448 16448 16448 16448 16448 16448 16448 16448 16448 16448 16448
16448 16448 16448 16448 16448 16448 16448 16448 16448 16448 16448 16448 16448 16448 16448
16448 16448 16448 16448 16448 16448 16448 16448 16448 16448 16448 16448 16448 16448 16448
16448 16448 16448 16448 16448 16448 16448 16448 16448 16448 16448 16448 16448 16448 16448
16448 16448 16448 16448 16448 16448 16448 16448 16448 16448 16448 16448 16448 16448 16448
16448 16448 16448 16448 16448 16448
16448 16448 16448 16448 16448 16448 16448 16448 16448 16448 16448 16448 16448 16448 16448
16448 16448 16448 16448 16448 16448 16448 16448 16448 16448 16448 16448 16448 16448 16448
16448 16448 16448 16448 16448 16448 16448 16448 16448 16448 16448 16448 16448 16448 16448
16448 16448 16448 16448 16448 16448 16448 16448 16448 16448 16448 16448 16448 16448 16448
16448 16448 16448 16448 16448 16448 16448 16448 16448 16448 16448 16448 16448 16448 16448
16448 16448 16448 16448 16448 16448 16448 16448 16448 16448 16448 16448 16448 16448 16448
16448 16448 16448 16448 16448 16448 16448 16448 16448 16448 16448 16448 16448 16448 16448
16448 16448 16448 16448 16448 16448 16448 16448 16448 16448 16448 16448 16448 16448 16448
16448 16448 16448 16448 16448 16448 16448 16448 16448 16448 16448 16448 16448 16448 16448
16448 16448 16448 16448 16448 16448 16448 16448 16448 16448 16448 16448 16448 16448 16448
16448 16448 16448 16448 16448 16448 16448 16448 16448 16448 16448 16448 16448 16448 16448
16448 16448 16448 16448 16448 16448
16448 16448 16448 16448 16448 16448 16448 16448 16448 16448 16448 16448 16448 16448 16448
16448 16448 16448 16448 16448 16448 16448 16448 16448 16448 16448 16448 16448 16448 16448
16448 16448 16448 16448 16448 16448 16448 16448 16448 16448 16448 16448 16448 16448 16448
16448 16448 16448 16448 16448 16448 16448 16448 16448 16448 16448 16448 16448 16448 16448
16448 16448 16448 16448 16448 16448 16448 16448 16448 16448 16448 16448 16448 16448 16448
16448 16448 16448 16448 16448 16448 16448 16448 16448 16448 16448 16448 16448 16448 16448
16448 16448 16448 16448 16448 16448 16448 16448 16448 16448 16448 16448 16448 16448 16448
16448 16448 16448 16448 16448 16448 16448 16448 16448 16448 16448 16448 16448 16448 16448
16448 16448 16448 16448 16448 16448 16448 16448 16448 16448 16448 16448 16448 16448 16448
16448 16448 16448 16448 16448 16448 16448 16448 16448 16448 16448 16448 16448 16448 16448
16448 16448 16448 16448 16448 16448 16448 16448 16448 16448 16448 16448 16448 16448 16448
16448 16448 16448 16448 16448 16448
16448 16448 16448 16448 16448 16448 16448 16448 16448 16448 16448 16448 16448 16448 16448
16448 16448 16448 16448 16448 16448 16448 16448 16448 16448 16448 16448 16448 16448 16448
16448 16448 16448 16448 16448 16448 16448 16448 16448 16448 16448 16448 16448 16448 16448
16448 16448 16448 16448 16448 16448 16448 16448 16448 16448 16448 16448 16448 16448 16448
16448 16448 16448 16448 16448 16448 16448 16448 16448 16448 16448 16448 16448 16448 16448
16448 16448 16448 16448 16448 16448 16448 16448 16448 16448 16448 16448 16448 16448 16448
16448 16448 16448 16448 16448 16448 16448 16448 16448 16448 16448 16448 16448 16448 16448
16448 16448 16448 16448 16448 16448 16448 16448 16448 16448 16448 16448 16448 16448 16448
16448 16448 16448 16448 16448 16448 16448 16448 16448 16448 16448 16448 16448 16448 16448
16448 16448 16448 16448 16448 16448 16448 16448 16448 16448 16448 16448 16448 16448 16448
16448 16448 16448 16448 16448 16448 16448 16448 16448 16448 16448 16448 16448 16448 16448
16448 16448 16448 16448 16448 16448
16448 16448 16448 16448 16448 16448 16448 16448 16448 16448 16448 16448 16448 16448 16448
16448 16448 16448 16448 16448 16448 16448 16448 16448 16448 16448 16448 16448 16448 16448
16448 16448 16448 16448 16448 16448 16448 16448 16448 16448 16448 16448 16448 16448 16448
16448 16448 16448 16448 16448 16448 16448 16448 16448 16448 16448 16448 16448 16448 16448
16448 16448 16448 16448 16448 16448 16448 16448 16448 16448 16448 16448 16448 16448 16448
16448 16448 16448 16448 16448 16448 16448 16448 16448 16448 16448 16448 16448 16448 16448
16448 16448 16448 16448 16448 16448 16448 16448 16448 16448 16448 16448 16448 16448 16448
16448 16448 16448 16448 16448 16448 16448 16448 16448 16448 16448 16448 16448 16448 16448
16448 16448 16448 16448 16448 16448 16448 16448 16448 16448 16448 16448 16448 16448 16448
16448 16448 16448 16448 16448 16448 16448 16448 16448 16448 16448 16448 16448 16448 16448
16448 16448 16448 16448 16448 16448 16448 16448 16448 16448 16448 16448 16448 16448 16448
16448 16448 16448 16448 16448 16448
16448 16448 16448 16448 16448 16448 16448 16448 16448 16448 16448 16448 16448 16448 16448
16448 16448 16448 16448 16448 16448 16448 16448 16448 16448 16448 16448 16448 16448 16448
16448 16448 16448 16448 16448 16448 16448 16448 16448 16448 16448 16448 16448 16448 16448
16448 16448 16448 16448 16448 16448 16448 16448 16448 16448 16448 16448 16448 16448 16448
16448 16448 16448 16448 16448 16448 16448 16448 16448 16448 16448 16448 16448 16448 16448
16448 16448 16448 16448 16448 16448 16448 16448 16448 16448 16448 16448 16448 16448 16448
16448 16448 16448 16448 16448 16448 16448 16448 16448 16448 16448 16448 16448 16448 16448
16448 16448 16448 16448 16448 16448 16448 16448 16448 16448 16448 16448 16448 16448 16448
16448 16448 16448 16448 16448 16448 16448 16448 16448 16448 16448 16448 16448 16448 16448
16448 16448 16448 16448 16448 16448 16448 16448 16448 16448 16448 16448 16448 16448 16448
16448 16448 16448 16448 16448 16448 16448 16448 16448 16448 16448 16448 16448 16448 16448
16448 16448 16448 16448 16448 16448
16448 16448 16448 16448 16448 16448 16448 16448 16448 16448 16448 16448 16448 16448 16448
16448 16448 16448 16448 16448 16448 16448 16448 16448 16448 16448 16448 16448 16448 16448
16448 16448 16448 16448 16448 16448 16448 16448 16448 16448 16448 16448 16448 16448 16448
16448 16448 16448 16448 16448 16448 16448 16448 16448 16448 16448 16448 16448 16448 16448
16448 16448 16448 16448 16448 16448 16448 16448 16448 16448 16448 16448 16448 16448 16448
16448 16448 16448 16448 16448 16448 16448 16448 16448 16448 16448 16448 16448 16448 16448
16448 16448 16448 16448 16448 16448 16448 16448 16448 16448 16448 16448 16448 16448 16448
16448 16448 16448 16448 16448 16448 16448 16448 16448 16448 16448 16448 16448 16448 16448
16448 16448 16448 16448 16448 16448 16448 16448 16448 16448 16448 16448 16448 16448 16448
16448 16448 16448 16448 16448 16448 16448 16448 16448 16448 16448 16448 16448 16448 16448
16448 16448 16448 16448 16448 16448 16448 16448 16448 16448 16448 16448 16448 16448 16448
16448 16448 16448 16448 16448 16448
16448 16448 16448 16448 16448 16448 16448 16448 16448 16448 16448 16448 16448 16448 16448
16448 16448 16448 16448 16448 16448 16448 16448 16448 16448 16448 16448 16448 16448 16448
16448 16448 16448 16448 16448 16448 16448 16448 16448 16448 16448 16448 16448 16448 16448
16448 16448 16448 16448 16448 16448 16448 16448 16448 16448 16448 16448 16448 16448 16448
16448 16448 16448 16448 16448 16448 16448 16448 16448 16448 16448 16448 16448 16448 16448
16448 16448 16448 16448 16448 16448 16448 16448 16448 16448 16448 16448 16448 16448 16448
16448 16448 16448 16448 16448 16448 16448 16448 16448 16448 16448 16448 16448 16448 16448
16448 16448 16448 16448 16448 16448 16448 16448 16448 16448 16448 16448 16448 16448 16448
16448 16448 16448 16448 16448 16448 16448 16448 16448 16448 16448 16448 16448 16448 16448
16448 16448 16448 16448 16448 16448 16448 16448 16448 16448 16448 16448 16448 16448 16448
16448 16448 16448 16448 16448 16448 16448 16448 16448 16448 16448 16448 16448 16448 16448
16448 16448 16448 16448 16448 16448
16448 16448 16448 16448 16448 16448 16448 16448 16448 16448 16448 16448 16448 16448 16448
16448 16448 16448 16448 16448 16448 16448 16448 16448 16448 16448 16448 16448 16448 16448
16448 16448 16448 16448 16448 16448 16448 16448 16448 16448 16448 16448 16448 16448 16448
16448 16448 16448 16448 16448 16448 16448 16448 16448 16448 16448 16448 16962  3341 16962
21845  4369 21845 24158  4883 24158 24929  4883 24929 24415  4883 24415 22102  4369 22102
17476  3598 17476 16448 16448 16448 16448 16448 16448 16448 16448 16448 16448 16448 16448
16448 16448 16448 16448 16448 16448 16448 16448 16448 16448 16448 16448 16448 16448 16448
16448 16448 16448 16448 16448 16448 16448 16448 16448 16448 16448 16448 16448 16448 16448
16448 16448 16448 16448 16448 16448 16448 16448 16448 16448 16448 16448 16448 16448 16448
16448 16448 16448 16448 16448 16448 16448 16448 16448 16448 16448 16448 16448 16448 16448
16448 16448 16448 16448 16448 16448 16448 16448 16448 16448 16448 16448 16448 16448 16448
16448 16448 16448 16448 16448 16448
16448 16448 16448 16448 16448 16448 16448 16448 16448 16448 16448 16448 16448 16448 16448
16448 16448 16448 16448 16448 16448 16448 16448 16448 16448 16448 16448 16448 16448 16448
16448 16448 16448 16448 16448 16448 16448 16448 16448 16448 16448 16448 16448 16448 16448
16448 16448 16448 16448 16448 16448 10280  2056 10280 22616  4626 22616 27756  5654 27756
31097  6168 31097 33153  6682 33153 34181  6939 34181 34181  6939 34181 33410  6682 33410
31611  6425 31611 28527  5654 28527 23387  4626 23387 11565  2313 11565 16448 16448 16448
16448 16448 16448 16448 16448 16448 16448 16448 16448 16448 16448 16448 16448 16448 16448
16448 16448 16448 16448 16448 16448 16448 16448 16448 16448 16448 16448 16448 16448 16448
16448 16448 16448 16448 16448 16448 16448 16448 16448 16448 16448 16448 16448 16448 16448
16448 16448 16448 16448 16448 16448 16448 16448 16448 16448 16448 16448 16448 16448 16448
16448 16448 16448 16448 16448 16448 16448 16448 16448 16448 16448 16448 16448 16448 16448
16448 16448 16448 16448 16448 16448
16448 16448 16448 16448 16448 16448 16448 16448 16448 16448 16448 16448 16448 16448 16448
16448 16448 16448 16448 16448 16448 16448 16448 16448 16448 16448 16448 16448 16448 16448
16448 16448 16448 16448 16448 16448 16448 16448 16448 16448 16448 16448 16448 16448 16448
16448 16448 16448 16448 16448 16448 22616  4626 22616 29555  5911 29555 33924  6682 33924
37008  7453 37008 39064  7710 39064 40349  7967 40349 40863  8224 40863 40606  8224 40606
39578  7967 39578 37779  7453 37779 34952  6939 34952 30583  6168 30583 23644  4626 23644
16448 16448 16448 16448 16448 16448 16448 16448 16448 16448 16448 16448 16448 16448 16448
16448 16448 16448 16448 16448 16448 16448 16448 16448 16448 16448 16448 16448 16448 16448
16448 16448 16448 16448 16448 16448 16448 16448 16448 16448 16448 16448 16448 16448 16448
16448 16448 16448 16448 16448 16448 16448 16448 16448 16448 16448 16448 16448 16448 16448
16448 16448 16448 16448 16448 16448 16448 16448 16448 16448 16448 16448 16448 16448 16448
16448 16448 16448 16448 16448 16448
16448 16448 16448 16448 16448 16448 16448 16448 16448 16448 16448 16448 16448 16448 16448
16448 16448 16448 16448 16448 16448 16448 16448 16448 16448 16448 16448 16448 16448 16448
16448 16448 16448 16448 16448 16448 16448 16448 16448 16448 16448 16448 16448 16448 16448
16448 16448 16448 16962  3341 16962 27756  5654 27756 33924  6682 33924 38293  7710 38293
41377  8224 41377 43433  8738 43433 44975  8995 44975 45746  9252 45746 46003  9252 46003
45489  8995 45489 44204  8738 44204 42405  8481 42405 39321  7967 39321 35209  6939 35209
29041  5911 29041 18504  3598 18504 16448 16448 16448 16448 16448 16448 16448 16448 16448
16448 16448 16448 16448 16448 16448 16448 16448 16448 16448 16448 16448 16448 16448 16448
16448 16448 16448 16448 16448 16448 16448 16448 16448 16448 16448 16448 16448 16448 16448
16448 16448 16448 16448 16448 16448 16448 16448 16448 16448 16448 16448 16448 16448 16448
16448 16448 16448 16448 16448 16448 16448 16448 16448 16448 16448 16448 16448 16448 16448
16448 16448 16448 16448 16448 16448
16448 16448 16448 16448 16448 16448 16448 16448 16448 16448 16448 16448 16448 16448 16448
16448 16448 16448 16448 16448 16448 16448 16448 16448 16448 16448 16448 16448 16448 16448
16448 16448 16448 16448 16448 16448 16448 16448 16448 16448 16448 16448 16448 16448 16448
16448 16448 16448 21845  4369 21845 31097  6168 31097 37008  7453 37008 41377  8224 41377
44461  8995 44461 47031  9509 47031 48573  9766 48573 49601 10023 49601 50115 10023 50115
50115 10023 50115 49344  9766 49344 47802  9509 47802 45746  9252 45746 42662  8481 42662
38550  7710 38550 32639  6425 32639 23387  4626 23387 16448 16448 16448 16448 16448 16448
16448 16448 16448 16448 16448 16448 16448 16448 16448 16448 16448 16448 16448 16448 16448
16448 16448 16448 16448 16448 16448 16448 16448 16448 16448 16448 16448 16448 16448 16448
16448 16448 16448 16448 16448 16448 16448 16448 16448 16448 16448 16448 16448 16448 16448
16448 16448 16448 16448 16448 16448 16448 16448 16448 16448 16448 16448 16448 16448 16448
16448 16448 16448 16448 16448 16448
16448 16448 16448 16448 16448 16448 16448 16448 16448 16448 16448 16448 16448 16448 16448
16448 16448 16448 16448 16448 16448 16448 16448 16448 16448 16448 16448 16448 16448 16448
16448 16448 16448 16448 16448 16448 16448 16448 16448 16448 16448 16448 16448 16448 16448
16448 16448 16448 24158  4883 24158 33153  6682 33153 39064  7710 39064 43433  8738 43433
47031  9509 47031 49601 10023 49601 51400 10280 51400 52685 10537 52685 53456 10794 53456
53713 10794 53713 53199 10537 53199 52428 10537 52428 50629 10023 50629 48316  9766 48316
45232  8995 45232 40863  8224 40863 34952  6939 34952 25957  5140 25957 16448 16448 16448
16448 16448 16448 16448 16448 16448 16448 16448 16448 16448 16448 16448 16448 16448 16448
16448 16448 16448 16448 16448 16448 16448 16448 16448 16448 16448 16448 16448 16448 16448
16448 16448 16448 16448 16448 16448 16448 16448 16448 16448 16448 16448 16448 16448 16448
16448 16448 16448 16448 16448 16448 16448 16448 16448 16448 16448 16448 16448 16448 16448
16448 16448 16448 16448 16448 16448
16448 16448 16448 16448 16448 16448 16448 16448 16448 16448 16448 16448 16448 16448 16448
16448 16448 16448 16448 16448 16448 16448 16448 16448 16448 16448 16448 16448 16448 16448
16448 16448 16448 16448 16448 16448 16448 16448 16448 16448 16448 16448 16448 16448 16448
16448 16448 16448 24929  4883 24929 34181  6939 34181 40349  7967 40349 44975  8995 44975
48573  9766 48573 51400 10280 51400 53456 10794 53456 54998 11051 54998 56026 11308 56026
56540 11308 56540 56540 11308 56540 55769 11308 55769 54741 11051 54741 52942 10537 52942
50372 10023 50372 47031  9509 47031 42405  8481 42405 36237  7196 36237 26985  5397 26985
16448 16448 16448 16448 16448 16448 16448 16448 16448 16448 16448 16448 16448 16448 16448
16448 16448 16448 16448 16448 16448 16448 16448 16448 16448 16448 16448 16448 16448 16448
16448 16448 16448 16448 16448 16448 16448 16448 16448 16448 16448 16448 16448 16448 16448
16448 16448 16448 16448 16448 16448 16448 16448 16448 16448 16448 16448 16448 16448 16448
16448 16448 16448 16448 16448 16448
16448 16448 16448 16448 16448 16448 16448 16448 16448 16448 16448 16448 16448 16448 16448
16448 16448 16448 16448 16448 16448 16448 16448 16448 16448 16448 16448 16448 16448 16448
16448 16448 16448 16448 16448 16448 16448 16448 16448 16448 16448 16448 16448 16448 16448
16448 16448 16448 24415  4883 24415 34181  6939 34181 40863  8224 40863 45746  9252 45746
49601 10023 49601 52685 10537 52685 54998 11051 54998 56797 11308 56797 58082 11565 58082
58853 11822 58853 59110 11822 59110 58853 11822 58853 57825 11565 57825 56540 11308 56540
54484 10794 54484 51657 10280 51657 48059  9509 48059 43176  8738 43176 36494  7196 36494
26471  5397 26471 16448 16448 16448 16448 16448 16448 16448 16448 16448 16448 16448 16448
16448 16448 16448 16448 16448 16448 16448 16448 16448 16448 16448 16448 16448 16448 16448
16448 16448 16448 16448 16448 16448 16448 16448 16448 16448 16448 16448 16448 16448 16448
16448 16448 16448 16448 16448 16448 16448 16448 16448 16448 16448 16448 16448 16448 16448
16448 16448 16448 16448 16448 16448
16448 16448 16448 16448 16448 16448 16448 16448 16448 16448 16448 16448 16448 16448 16448
16448 16448 16448 16448 16448 16448 16448 16448 16448 16448 16448 16448 16448 16448 16448
16448 16448 16448 16448 16448 16448 16448 16448 16448 16448 16448 16448 16448 16448 16448
16448 16448 16448 22102  4369 22102 33410  6682 33410 40606  8224 40606 46003  9252 46003
50115 10023 50115 53456 10794 53456 56026 11308 56026 58082 11565 58082 59624 11822 59624
60652 12079 60652 60909 12079 60909 60909 12079 60909 60395 12079 60395 59367 11822 59367
57825 11565 57825 55512 11051 55512 52428 10537 52428 48316  9766 48316 43176  8738 43176
35980  7196 35980 24415  4883 24415 16448 16448 16448 16448 16448 16448 16448 16448 16448
16448 16448 16448 16448 16448 16448 16448 16448 16448 16448 16448 16448 16448 16448 16448
16448 16448 16448 16448 16448 16448 16448 16448 16448 16448 16448 16448 16448 16448 16448
16448 16448 16448 16448 16448 16448 16448 16448 16448 16448 16448 16448 16448 16448 16448
16448 16448 16448 16448 16448 16448
16448 16448 16448 16448 16448 16448 16448 16448 16448 16448 16448 16448 16448 16448 16448
16448 16448 16448 16448 16448 16448 16448 16448 16448 16448 16448 16448 16448 16448 16448
16448 16448 16448 16448 16448 16448 16448 16448 16448 16448 16448 16448 16448 16448 16448
16448 16448 16448 17476  3598 17476 31611  6425 31611 39578  7967 39578 45489  8995 45489
50115 10023 50115 53713 10794 53713 56540 11308 56540 58853 11822 58853 60652 12079 60652
61680 12336 61680 62451 12593 62451 62708 12593 62708 62451 12593 62451 61680 12336 61680
60395 12079 60395 58339 11565 58339 55769 11051 55769 52428 10537 52428 48059  9509 48059
42148  8481 42148 34181  6939 34181 20046  4112 20046 16448 16448 16448 16448 16448 16448
16448 16448 16448 16448 16448 16448 16448 16448 16448 16448 16448 16448 16448 16448 16448
16448 16448 16448 16448 16448 16448 16448 16448 16448 16448 16448 16448 16448 16448 16448
16448 16448 16448 16448 16448 16448 16448 16448 16448 16448 16448 16448 16448 16448 16448
16448 16448 16448 16448 16448 16448
16448 16448 16448 16448 16448 16448 16448 16448 16448 16448 16448 16448 16448 16448 16448
16448 16448 16448 16448 16448 16448 16448 16448 16448 16448 16448 16448 16448 16448 16448
16448 16448 16448 16448 16448 16448 16448 16448 16448 16448 16448 16448 16448 16448 16448
16448 16448 16448 16448 16448 16448 28527  5654 28527 37779  7453 37779 44204  8738 44204
49344  9766 49344 53199 10537 53199 56540 11308 56540 59110 11822 59110 60909 12079 60909
62451 12593 62451 63479 12593 63479 63993 12850 63993 63736 12850 63736 63479 12593 63479
62451 12336 62451 60652 12079 60652 58596 11822 58596 55769 11051 55769 51914 10280 51914
47031  9509 47031 40606  7967 40606 31097  6168 31097 16448 16448 16448 16448 16448 16448
16448 16448 16448 16448 16448 16448 16448 16448 16448 16448 16448 16448 16448 16448 16448
16448 16448 16448 16448 16448 16448 16448 16448 16448 16448 16448 16448 16448 16448 16448
16448 16448 16448 16448 16448 16448 16448 16448 16448 16448 16448 16448 16448 16448 16448
16448 16448 16448 16448 16448 16448
16448 16448 16448 16448 16448 16448 16448 16448 16448 16448 16448 16448 16448 16448 16448
16448 16448 16448 16448 16448 16448 16448 16448 16448 16448 16448 16448 16448 16448 16448
16448 16448 16448 16448 16448 16448 16448 16448 16448 16448 16448 16448 16448 16448 16448
16448 16448 16448 16448 16448 16448 23387  4626 23387 34952  6939 34952 42405  8481 42405
47802  9509 47802 52428 10537 52428 55769 11308 55769 58853 11822 58853 60909 12079 60909
62708 12593 62708 63993 12850 63993 64507 12850 64507 64764 12850 64764 64507 12850 64507
63736 12850 63736 62451 12593 62451 60652 12079 60652 58082 11565 58082 54998 11051 54998
50629 10023 50629 45232  8995 45232 37779  7453 37779 25957  5140 25957 16448 16448 16448
16448 16448 16448 16448 16448 16448 16448 16448 16448 16448 16448 16448 16448 16448 16448
16448 16448 16448 16448 16448 16448 16448 16448 16448 16448 16448 16448 16448 16448 16448
16448 16448 16448 16448 16448 16448 16448 16448 16448 16448 16448 16448 16448 16448 16448
16448 16448 16448 16448 16448 16448
16448 16448 16448 16448 16448 16448 16448 16448 16448 16448 16448 16448 16448 16448 16448
16448 16448 16448 16448 16448 16448 16448 16448 16448 16448 16448 16448 16448 16448 16448
16448 16448 16448 16448 16448 16448 16448 16448 16448 16448 16448 16448 16448 16448 16448
16448 16448 16448 16448 16448 16448 11565  2313 11565 30583  6168 30583 39321  7967 39321
45746  9252 45746 50629 10023 50629 54741 11051 54741 57825 11565 57825 60395 12079 60395
62451 12593 62451 63736 12850 63736 64764 12850 64764 65535 13621 65535 65535 13621 65535
64764 12850 64764 63736 12850 63736 62194 12336 62194 60138 12079 60138 57311 11565 57311
53456 10794 53456 48573  9766 48573 42405  8481 42405 33410  6682 33410 15934  3084 15934
16448 16448 16448 16448 16448 16448 16448 16448 16448 16448 16448 16448 16448 16448 16448
16448 16448 16448 16448 16448 16448 16448 16448 16448 16448 16448 16448 16448 16448 16448
16448 16448 16448 16448 16448 16448 16448 16448 16448 16448 16448 16448 16448 16448 16448
16448 16448 16448 16448 16448 16448
16448 16448 16448 16448 16448 16448 16448 16448 16448 16448 16448 16448 16448 16448 16448
16448 16448 16448 16448 16448 16448 16448 16448 16448 16448 16448 16448 16448 16448 16448
16448 16448 16448 16448 16448 16448 16448 16448 16448 16448 16448 16448 16448 16448 16448
16448 16448 16448 16448 16448 16448 16448 16448 16448 23644  4626 23644 35209  6939 35209
42662  8481 42662 48316  9766 48316 52942 10537 52942 56540 11308 56540 59367 11822 59367
61680 12336 61680 63479 12593 63479 64507 12850 64507 65535 13621 65535 65535 24929 65535
65535 13364 65535 64507 12850 64507 63222 12593 63222 61423 12336 61423 58853 11822 58853
55512 11051 55512 51400 10280 51400 45746  9252 45746 38293  7710 38293 26471  5397 26471
16448 16448 16448 16448 16448 16448 16448 16448 16448 16448 16448 16448 16448 16448 16448
16448 16448 16448 16448 16448 16448 16448 16448 16448 16448 16448 16448 16448 16448 16448
16448 16448 16448 16448 16448 16448 16448 16448 16448 16448 16448 16448 16448 16448 16448
16448 16448 16448 16448 16448 16448
16448 16448 16448 16448 16448 16448 16448 16448 16448 16448 16448 16448 16448 16448 16448
16448 16448 16448 16448 16448 16448 16448 16448 16448 16448 16448 16448 16448 16448 16448
16448 16448 16448 16448 16448 16448 16448 16448 16448 16448 16448 16448 16448 16448 16448
16448 16448 16448 16448 16448 16448 16448 16448 16448 16448 16448 16448 29041  5911 29041
38550  7710 38550 45232  8995 45232 50372 10023 50372 54484 10794 54484 57825 11565 57825
60395 12079 60395 62451 12336 62451 63736 12850 63736 64764 12850 64764 65535 13364 65535
65535 13364 65535 64764 12850 64764 63736 12850 63736 62194 12336 62194 59881 12079 59881
57054 11308 57054 53199 10537 53199 48316  9766 48316 41634  8224 41634 32125  6425 32125
 9766  2056  9766 16448 16448 16448 16448 16448 16448 16448 16448 16448 16448 16448 16448
16448 16448 16448 16448 16448 16448 16448 16448 16448 16448 16448 16448 16448 16448 16448
16448 16448 16448 16448 16448 16448 16448 16448 16448 16448 16448 16448 16448 16448 16448
16448 16448 16448 16448 16448 16448
16448 16448 16448 16448 16448 16448 16448 16448 16448 16448 16448 16448 16448 16448 16448
16448 16448 16448 16448 16448 16448 16448 16448 16448 16448 16448 16448 16448 16448 16448
16448 16448 16448 16448 16448 16448 16448 16448 16448 16448 16448 16448 16448 16448 16448
16448 16448 16448 16448 16448 16448 16448 16448 16448 16448 16448 16448 18504  3598 18504
32639  6425 32639 40863  8224 40863 47031  9509 47031 51657 10280 51657 55512 11051 55512
58339 11565 58339 60652 12079 60652 62451 12593 62451 63736 12850 63736 64507 12850 64507
64764 12850 64764 64507 12850 64507 63736 12850 63736 62451 12593 62451 60395 12079 60395
57825 11565 57825 54227 10794 54227 49858 10023 49858 43947  8738 43947 35723  7196 35723
21845  4369 21845 16448 16448 16448 16448 16448 16448 16448 16448 16448 16448 16448 16448
16448 16448 16448 16448 16448 16448 16448 16448 16448 16448 16448 16448 16448 16448 16448
16448 16448 16448 16448 16448 16448 16448 16448 16448 16448 16448 16448 16448 16448 16448
16448 16448 16448 16448 16448 16448
16448 16448 16448 16448 16448 16448 16448 16448 16448 16448 16448 16448 16448 16448 16448
16448 16448 16448 16448 16448 16448 16448 16448 16448 16448 16448 16448 16448 16448 16448
16448 16448 16448 16448 16448 16448 16448 16448 16448 16448 16448 16448 16448 16448 16448
16448 16448 16448 16448 16448 16448 16448 16448 16448 16448 16448 16448 16448 16448 16448
23387  4626 23387 34952  6939 34952 42405  8481 42405 48059  9509 48059 52428 10537 52428
55769 11051 55769 58596 11822 58596 60652 12079 60652 62194 12336 62194 63222 12593 63222
63736 12850 63736 63736 12850 63736 63222 12593 63222 62194 12336 62194 60395 12079 60395
58082 11565 58082 54998 11051 54998 50886 10280 50886 45489  8995 45489 38036  7710 38036
26471  5397 26471 16448 16448 16448 16448 16448 16448 16448 16448 16448 16448 16448 16448
16448 16448 16448 16448 16448 16448 16448 16448 16448 16448 16448 16448 16448 16448 16448
16448 16448 16448 16448 16448 16448 16448 16448 16448 16448 16448 16448 16448 16448 16448
16448 16448 16448 16448 16448 16448
16448 16448 16448 16448 16448 16448 16448 16448 16448 16448 16448 16448 16448 16448 16448
16448 16448 16448 16448 16448 16448 16448 16448 16448 16448 16448 16448 16448 16448 16448
16448 16448 16448 16448 16448 16448 16448 16448 16448 16448 16448 16448 16448 16448 16448
16448 16448 16448 16448 16448 16448 16448 16448 16448 16448 16448 16448 16448 16448 16448
16448 16448 16448 25957  5140 25957 36237  7196 36237 43176  8738 43176 48316  9766 48316
52428 10537 52428 55769 11051 55769 58082 11565 58082 60138 12079 60138 61423 12336 61423
62194 12336 62194 62451 12593 62451 62194 12336 62194 61166 12336 61166 59881 12079 59881
57568 11565 57568 54741 11051 54741 50886 10280 50886 46003  9252 46003 39064  7967 39064
29041  5911 29041 16448 16448 16448 16448 16448 16448 16448 16448 16448 16448 16448 16448
16448 16448 16448 16448 16448 16448 16448 16448 16448 16448 16448 16448 16448 16448 16448
16448 16448 16448 16448 16448 16448 16448 16448 16448 16448 16448 16448 16448 16448 16448
16448 16448 16448 16448 16448 16448
16448 16448 16448 16448 16448 16448 16448 16448 16448 16448 16448 16448 16448 16448 16448
16448 16448 16448 16448 16448 16448 16448 16448 16448 16448 16448 16448 16448 16448 16448
16448 16448 16448 16448 16448 16448 16448 16448 16448 16448 16448 16448 16448 16448 16448
16448 16448 16448 16448 16448 16448 16448 16448 16448 16448 16448 16448 16448 16448 16448
16448 16448 16448 16448 16448 16448 26985  5397 26985 36494  7196 36494 43176  8738 43176
48059  9509 48059 51914 10280 51914 54998 11051 54998 57311 11565 57311 58853 11822 58853
59881 12079 59881 60395 12079 60395 60395 12079 60395 59881 12079 59881 58596 11822 58596
56797 11308 56797 53970 10794 53970 50629 10023 50629 45746  9252 45746 39321  7967 39321
29812  5911 29812 16448 16448 16448 16448 16448 16448 16448 16448 16448 16448 16448 16448
16448 16448 16448 16448 16448 16448 16448 16448 16448 16448 16448 16448 16448 16448 16448
16448 16448 16448 16448 16448 16448 16448 16448 16448 16448 16448 16448 16448 16448 16448
16448 16448 16448 16448 16448 16448
16448 16448 16448 16448 16448 16448 16448 16448 16448 16448 16448 16448 16448 16448 16448
16448 16448 16448 16448 16448 16448 16448 16448 16448 16448 16448 16448 16448 16448 16448
16448 16448 16448 16448 16448 16448 16448 16448 16448 16448 16448 16448 16448 16448 16448
16448 16448 16448 16448 16448 16448 16448 16448 16448 16448 16448 16448 16448 16448 16448
16448 16448 16448 16448 16448 16448 16448 16448 16448 26471  5397 26471 35980  7196 35980
42148  8481 42148 47031  9509 47031 50629 10023 50629 53456 10794 53456 55512 11051 55512
57054 11308 57054 57825 11565 57825 58082 11565 58082 57568 11565 57568 56797 11308 56797
54998 11051 54998 52685 10537 52685 49344  9766 49344 44718  8995 44718 38550  7710 38550
29298  5911 29298 16448 16448 16448 16448 16448 16448 16448 16448 16448 16448 16448 16448
16448 16448 16448 16448 16448 16448 16448 16448 16448 16448 16448 16448 16448 16448 16448
16448 16448 16448 16448 16448 16448 16448 16448 16448 16448 16448 16448 16448 16448 16448
16448 16448 16448 16448 16448 16448
16448 16448 16448 16448 16448 16448 16448 16448 16448 16448 16448 16448 16448 16448 16448
16448 16448 16448 16448 16448 16448 16448 16448 16448 16448 16448 16448 16448 16448 16448
16448 16448 16448 16448 16448 16448 16448 16448 16448 16448 16448 16448 16448 16448 16448
16448 16448 16448 16448 16448 16448 16448 16448 16448 16448 16448 16448 16448 16448 16448
16448 16448 16448 16448 16448 16448 16448 16448 16448 16448 16448 16448 24415  4883 24415
34181  6939 34181 40606  7967 40606 45232  8995 45232 48573  9766 48573 51400 10280 51400
53199 10537 53199 54227 10794 54227 54998 11051 54998 54741 11051 54741 53970 10794 53970
52685 10537 52685 50372 10023 50372 47288  9509 47288 42919  8481 42919 36751  7453 36751
27242  5397 27242 16448 16448 16448 16448 16448 16448 16448 16448 16448 16448 16448 16448
16448 16448 16448 16448 16448 16448 16448 16448 16448 16448 16448 16448 16448 16448 16448
16448 16448 16448 16448 16448 16448 16448 16448 16448 16448 16448 16448 16448 16448 16448
16448 16448 16448 16448 16448 16448
16448 16448 16448 16448 16448 16448 16448 16448 16448 16448 16448 16448 16448 16448 16448
16448 16448 16448 16448 16448 16448 16448 16448 16448 16448 16448 16448 16448 16448 16448
16448 16448 16448 16448 16448 16448 16448 16448 16448 16448 16448 16448 16448 16448 16448
16448 16448 16448 16448 16448 16448 16448 16448 16448 16448 16448 16448 16448 16448 16448
16448 16448 16448 16448 16448 16448 16448 16448 16448 16448 16448 16448 16448 16448 16448
20046  4112 20046 31097  6168 31097 37779  7453 37779 42405  8481 42405 45746  9252 45746
48316  9766 48316 49858 10023 49858 50886 10280 50886 50886 10280 50886 50629 10023 50629
49344  9766 49344 47288  9509 47288 44204  8738 44204 39835  7967 39835 33410  6682 33410
23130  4626 23130 16448 16448 16448 16448 16448 16448 16448 16448 16448 16448 16448 16448
16448 16448 16448 16448 16448 16448 16448 16448 16448 16448 16448 16448 16448 16448 16448
16448 16448 16448 16448 16448 16448 16448 16448 16448 16448 16448 16448 16448 16448 16448
16448 16448 16448 16448 16448 16448
16448 16448 16448 16448 16448 16448 16448 16448 16448 16448 16448 16448 16448 16448 16448
16448 16448 16448 16448 16448 16448 16448 16448 16448 16448 16448 16448 16448 16448 16448
16448 16448 16448 16448 16448 16448 16448 16448 16448 16448 16448 16448 16448 16448 16448
16448 16448 16448 16448 16448 16448 16448 16448 16448 16448 16448 16448 16448 16448 16448
16448 16448 16448 16448 16448 16448 16448 16448 16448 16448 16448 16448 16448 16448 16448
16448 16448 16448 16448 16448 16448 25957  5140 25957 33410  6682 33410 38293  7710 38293
41634  8224 41634 43947  8738 43947 45489  8995 45489 46003  9252 46003 45746  9252 45746
44718  8995 44718 42919  8481 42919 39835  7967 39835 35209  6939 35209 28270  5654 28270
13621  2827 13621 16448 16448 16448 16448 16448 16448 16448 16448 16448 16448 16448 16448
16448 16448 16448 16448 16448 16448 16448 16448 16448 16448 16448 16448 16448 16448 16448
16448 16448 16448 16448 16448 16448 16448 16448 16448 16448 16448 16448 16448 16448 16448
16448 16448 16448 16448 16448 16448
16448 16448 16448 16448 16448 16448 16448 16448 16448 16448 16448 16448 16448 16448 16448
16448 16448 16448 16448 16448 16448 16448 16448 16448 16448 16448 16448 16448 16448 16448
16448 16448 16448 16448 16448 16448 16448 16448 16448 16448 16448 16448 16448 16448 16448
16448 16448 16448 16448 16448 16448 16448 16448 16448 16448 16448 16448 16448 16448 16448
16448 16448 16448 16448 16448 16448 16448 16448 16448 16448 16448 16448 16448 16448 16448
16448 16448 16448 16448 16448 16448 16448 16448 16448 15934  3084 15934 26471  5397 26471
32125  6425 32125 35723  7196 35723 38036  7710 38036 39064  7967 39064 39321  7967 39321
38550  7710 38550 36751  7453 36751 33410  6682 33410 28270  5654 28270 18761  3855 18761
16448 16448 16448 16448 16448 16448 16448 16448 16448 16448 16448 16448 16448 16448 16448
16448 16448 16448 16448 16448 16448 16448 16448 16448 16448 16448 16448 16448 16448 16448
16448 16448 16448 16448 16448 16448 16448 16448 16448 16448 16448 16448 16448 16448 16448
16448 16448 16448 16448 16448 16448
16448 16448 16448 16448 16448 16448 16448 16448 16448 16448 16448 16448 16448 16448 16448
16448 16448 16448 16448 16448 16448 16448 16448 16448 16448 16448 16448 16448 16448 16448
16448 16448 16448 16448 16448 16448 16448 16448 16448 16448 16448 16448 16448 16448 16448
16448 16448 16448 16448 16448 16448 16448 16448 16448 16448 16448 16448 16448 16448 16448
16448 16448 16448 16448 16448 16448 16448 16448 16448 16448 16448 16448 16448 16448 16448
16448 16448 16448 16448 16448 16448 16448 16448 16448 16448 16448 16448 16448 16448 16448
 9766  2056  9766 21845  4369 21845 26471  5397 26471 29041  5911 29041 29812  5911 29812
29298  5911 29298 27242  5397 27242 23130  4626 23130 13621  2827 13621 16448 16448 16448
16448 16448 16448 16448 16448 16448 16448 16448 16448 16448 16448 16448 16448 16448 16448
16448 16448 16448 16448 16448 16448 16448 16448 16448 16448 16448 16448 16448 16448 16448
16448 16448 16448 16448 16448 16448 16448 16448 16448 16448 16448 16448 16448 16448 16448
16448 16448 16448 16448 16448 16448
16448 16448 16448 16448 16448 16448 16448 16448 16448 16448 16448 16448 16448 16448 16448
16448 16448 16448 16448 16448 16448 16448 16448 16448 16448 16448 16448 16448 16448 16448
16448 16448 16448 16448 16448 16448 16448 16448 16448 16448 16448 16448 16448 16448 16448
16448 16448 16448 16448 16448 16448 16448 16448 16448 16448 16448 16448 16448 16448 16448
16448 16448 16448 16448 16448 16448 16448 16448 16448 16448 16448 16448 16448 16448 16448
16448 16448 16448 16448 16448 16448 16448 16448 16448 16448 16448 16448 16448 16448 16448
16448 16448 16448 16448 16448 16448 16448 16448 16448 16448 16448 16448 16448 16448 16448
16448 16448 16448 16448 16448 16448 16448 16448 16448 16448 16448 16448 16448 16448 16448
16448 16448 16448 16448 16448 16448 16448 16448 16448 16448 16448 16448 16448 16448 16448
16448 16448 16448 16448 16448 16448 16448 16448 16448 16448 16448 16448 16448 16448 16448
16448 16448 16448 16448 16448 16448 16448 16448 16448 16448 16448 16448 16448 16448 16448
16448 16448 16448 16448 16448 16448
16448 16448 16448 16448 16448 16448 16448 16448 16448 16448 16448 16448 16448 16448 16448
16448 16448 16448 16448 16448 16448 16448 16448 16448 16448 16448 16448 16448 16448 16448
16448 16448 16448 16448 16448 16448 16448 16448 16448 16448 16448 16448 16448 16448 16448
16448 16448 16448 16448 16448 16448 16448 16448 16448 16448 16448 16448 16448 16448 16448
16448 16448 16448 16448 16448 16448 16448 16448 16448 16448 16448 16448 16448 16448 16448
16448 16448 16448 16448 16448 16448 16448 16448 16448 16448 16448 16448 16448 16448 16448
16448 16448 16448 16448 16448 16448 16448 16448 16448 16448 16448 16448 16448 16448 16448
16448 16448 16448 16448 16448 16448 16448 16448 16448 16448 16448 16448 16448 16448 16448
16448 16448 16448 16448 16448 16448 16448 16448 16448 16448 16448 16448 16448 16448 16448
16448 16448 16448 16448 16448 16448 16448 16448 16448 16448 16448 16448 16448 16448 16448
16448 16448 16448 16448 16448 16448 16448 16448 16448 16448 16448 16448 16448 16448 16448
16448 16448 16448 16448 16448 16448
16448 16448 16448 16448 16448 16448 16448 16448 16448 16448 16448 16448 16448 16448 16448
16448 16448 16448 16448 16448 16448 16448 16448 16448 16448 16448 16448 16448 16448 16448
16448 16448 16448 16448 16448 16448 16448 16448 16448 16448 16448 16448 16448 16448 16448
16448 16448 16448 16448 16448 16448 16448 16448 16448 16448 16448 16448 16448 16448 16448
16448 16448 16448 16448 16448 16448 16448 16448 16448 16448 16448 16448 16448 16448 16448
16448 16448 16448 16448 16448 16448 16448 16448 16448 16448 16448 16448 16448 16448 16448
16448 16448 16448 16448 16448 16448 16448 16448 16448 16448 16448 16448 16448 16448 16448
16448 16448 16448 16448 16448 16448 16448 16448 16448 16448 16448 16448 16448 16448 16448
16448 16448 16448 16448 16448 16448 16448 16448 16448 16448 16448 16448 16448 16448 16448
16448 16448 16448 16448 16448 16448 16448 16448 16448 16448 16448 16448 16448 16448 16448
16448 16448 16448 16448 16448 16448 16448 16448 16448 16448 16448 16448 16448 16448 16448
16448 16448 16448 16448 16448 16448
16448 16448 16448 16448 16448 16448 16448 16448 16448 16448 16448 16448 16448 16448 16448
16448 16448 16448 16448 16448 16448 16448 16448 16448 16448 16448 16448 16448 16448 16448
16448 16448 16448 16448 16448 16448 16448 16448 16448 16448 16448 16448 16448 16448 16448
16448 16448 16448 16448 16448 16448 16448 16448 16448 16448 16448 16448 16448 16448 16448
16448 16448 16448 16448 16448 16448 16448 16448 16448 16448 16448 16448 16448 16448 16448
16448 16448 16448 16448 16448 16448 16448 16448 16448 16448 16448 16448 16448 16448 16448
16448 16448 16448 16448 16448 16448 16448 16448 16448 16448 16448 16448 16448 16448 16448
16448 16448 16448 16448 16448 16448 16448 16448 16448 16448 16448 16448 16448 16448 16448
16448 16448 16448 16448 16448 16448 16448 16448 16448 16448 16448 16448 16448 16448 16448
16448 16448 16448 16448 16448 16448 16448 16448 16448 16448 16448 16448 16448 16448 16448
16448 16448 16448 16448 16448 16448 16448 16448 16448 16448 16448 16448 16448 16448 16448
16448 16448 16448 16448 16448 16448
16448 16448 16448 16448 16448 16448 16448 16448 16448 16448 16448 16448 16448 16448 16448
16448 16448 16448 16448 16448 16448 16448 16448 16448 16448 16448 16448 16448 16448 16448
16448 16448 16448 16448 16448 16448 16448 16448 16448 16448 16448 16448 16448 16448 16448
16448 16448 16448 16448 16448 16448 16448 16448 16448 16448 16448 16448 16448 16448 16448
16448 16448 16448 16448 16448 16448 16448 16448 16448 16448 16448 16448 16448 16448 16448
16448 16448 16448 16448 16448 16448 16448 16448 16448 16448 16448 16448 16448 16448 16448
16448 16448 16448 16448 16448 16448 16448 16448 16448 16448 16448 16448 16448 16448 16448
16448 16448 16448 16448 16448 16448 16448 16448 16448 16448 16448 16448 16448 16448 16448
16448 16448 16448 16448 16448 16448 16448 16448 16448 16448 16448 16448 16448 16448 16448
16448 16448 16448 16448 16448 16448 16448 16448 16448 16448 16448 16448 16448 16448 16448
16448 16448 16448 16448 16448 16448 16448 16448 16448 16448 16448 16448 16448 16448 16448
16448 16448 16448 16448 16448 16448
16448 16448 16448 16448 16448 16448 16448 16448 16448 16448 16448 16448 16448 16448 16448
16448 16448 16448 16448 16448 16448 16448 16448 16448 16448 16448 16448 16448 16448 16448
16448 16448 16448 16448 16448 16448 16448 16448 16448 16448 16448 16448 16448 16448 16448
16448 16448 16448 16448 16448 16448 16448 16448 16448 16448 16448 16448 16448 16448 16448
16448 16448 16448 16448 16448 16448 16448 16448 16448 16448 16448 16448 16448 16448 16448
16448 16448 16448 16448 16448 16448 16448 16448 16448 16448 16448 16448 16448 16448 16448
16448 16448 16448 16448 16448 16448 16448 16448 16448 16448 16448 16448 16448 16448 16448
16448 16448 16448 16448 16448 16448 16448 16448 16448 16448 16448 16448 16448 16448 16448
16448 16448 16448 16448 16448 16448 16448 16448 16448 16448 16448 16448 16448 16448 16448
16448 16448 16448 16448 16448 16448 16448 16448 16448 16448 16448 16448 16448 16448 16448
16448 16448 16448 16448 16448 16448 16448 16448 16448 16448 16448 16448 16448 16448 16448
16448 16448 16448 16448 16448 16448
16448 16448 16448 16448 16448 16448 16448 16448 16448 16448 16448 16448 16448 16448 16448
16448 16448 16448 16448 16448 16448 16448 16448 16448 16448 16448 16448 16448 16448 16448
16448 16448 16448 16448 16448 16448 16448 16448 16448 16448 16448 16448 16448 16448 16448
16448 16448 16448 16448 16448 16448 16448 16448 16448 16448 16448 16448 16448 16448 16448
16448 16448 16448 16448 16448 16448 16448 16448 16448 16448 16448 16448 16448 16448 16448
16448 16448 16448 16448 16448 16448 16448 16448 16448 16448 16448 16448 16448 16448 16448
16448 16448 16448 16448 16448 16448 16448 16448 16448 16448 16448 16448 16448 16448 16448
16448 16448 16448 16448 16448 16448 16448 16448 16448 16448 16448 16448 16448 16448 16448
16448 16448 16448 16448 16448 16448 16448 16448 16448 16448 16448 16448 16448 16448 16448
16448 16448 16448 16448 16448 16448 16448 16448 16448 16448 16448 16448 16448 16448 16448
16448 16448 16448 16448 16448 16448 16448 16448 16448 16448 16448 16448 16448 16448 16448
16448 16448 16448 16448 16448 16448
16448 16448 16448 16448 16448 16448 16448 16448 16448 16448 16448 16448 16448 16448 16448
16448 16448 16448 16448 16448 16448 16448 16448 16448 16448 16448 16448 16448 16448 16448
16448 16448 16448 16448 16448 16448 16448 16448 16448 16448 16448 16448 16448 16448 16448
16448 16448 16448 16448 16448 16448 16448 16448 16448 16448 16448 16448 16448 16448 16448
16448 16448 16448 16448 16448 16448 16448 16448 16448 16448 16448 16448 16448 16448 16448
16448 16448 16448 16448 16448 16448 16448 16448 16448 16448 16448 16448 16448 16448 16448
16448 16448 16448 16448 16448 16448 16448 16448 16448 16448 16448 16448 16448 16448 16448
16448 16448 16448 16448 16448 16448 16448 16448 16448 16448 16448 16448 16448 16448 16448
16448 16448 16448 16448 16448 16448 16448 16448 16448 16448 16448 16448 16448 16448 16448
16448 16448 16448 16448 16448 16448 16448 16448 16448 16448 16448 16448 16448 16448 16448
16448 16448 16448 16448 16448 16448 16448 16448 16448 16448 16448 16448 16448 16448 16448
16448 16448 16448 16448 16448 16448
16448 16448 16448 16448 16448 16448 16448 16448 16448 16448 16448 16448 16448 16448 16448
16448 16448 16448 16448 16448 16448 16448 16448 16448 16448 16448 16448 16448 16448 16448
16448 16448 16448 16448 16448 16448 16448 16448 16448 16448 16448 16448 16448 16448 16448
16448 16448 16448 16448 16448 16448 16448 16448 16448 16448 16448 16448 16448 16448 16448
16448 16448 16448 16448 16448 16448 16448 16448 16448 16448 16448 16448 16448 16448 16448
16448 16448 16448 16448 16448 16448 16448 16448 16448 16448 16448 16448 16448 16448 16448
16448 16448 16448 16448 16448 16448 16448 16448 16448 16448 16448 16448 16448 16448 16448
16448 16448 16448 16448 16448 16448 16448 16448 16448 16448 16448 16448 16448 16448 16448
16448 16448 16448 16448 16448 16448 16448 16448 16448 16448 16448 16448 16448 16448 16448
16448 16448 16448 16448 16448 16448 16448 16448 16448 16448 16448 16448 16448 16448 16448
16448 16448 16448 16448 16448 16448 16448 16448 16448 16448 16448 16448 16448 16448 16448
16448 16448 16448 16448 16448 16448
